<?xml version="1.0" standalone="no"?>
<!DOCTYPE svg PUBLIC "-//W3C//DTD SVG 20010904//EN"
 "http://www.w3.org/TR/2001/REC-SVG-20010904/DTD/svg10.dtd">
<svg version="1.0" xmlns="http://www.w3.org/2000/svg"
 width="632.000000pt" height="632.000000pt" viewBox="0 0 632.000000 632.000000"
 preserveAspectRatio="xMidYMid meet">
<metadata>
Created by potrace 1.14, written by Peter Selinger 2001-2017
</metadata>
<g transform="translate(0.000000,632.000000) scale(0.100000,-0.100000)"
fill="#000000" stroke="none">
<path d="M2920 5449 c-58 -39 -529 -352 -1047 -697 l-943 -627 0 -925 1 -925
1049 -697 c577 -384 1053 -699 1059 -700 5 -2 482 312 1060 697 l1050 700 0
925 0 925 -62 42 c-760 508 -2040 1353 -2049 1352 -7 0 -60 -32 -118 -70z
m207 -275 c48 -31 467 -309 931 -617 l842 -560 0 -362 0 -362 -927 -618 c-511
-340 -932 -618 -938 -618 -12 0 -1085 715 -1085 723 1 7 420 284 436 288 7 2
133 -77 281 -176 396 -264 380 -254 406 -241 18 10 1326 880 1460 972 l37 25
-28 24 c-66 55 -1455 978 -1495 994 -13 5 -410 -256 -1062 -696 -574 -388
-780 -527 -793 -534 -9 -6 -12 55 -12 288 l0 295 183 122 c100 67 497 332 882
588 385 257 718 478 740 493 22 15 43 27 47 27 4 1 47 -24 95 -55z m146 -966
c231 -151 858 -567 870 -578 4 -3 -92 -73 -214 -154 l-221 -147 -295 196
c-162 108 -319 212 -348 231 l-54 34 -85 -68 c-47 -37 -86 -69 -86 -72 0 -8
191 -139 438 -300 121 -80 221 -148 222 -151 0 -5 -206 -142 -417 -276 -19
-12 -26 -12 -53 2 -32 17 -111 67 -451 287 -64 42 -134 86 -156 98 l-39 23
-95 -58 c-91 -56 -713 -469 -754 -501 -20 -15 -20 -16 10 -37 106 -79 1465
-987 1476 -987 14 0 50 24 1079 705 423 280 769 508 788 519 9 6 12 -54 12
-283 l0 -291 -877 -583 c-483 -321 -902 -598 -930 -616 l-53 -33 -52 33 c-29
18 -448 295 -930 616 l-878 583 0 357 1 358 777 517 c1021 679 1083 720 1099
714 7 -3 104 -65 216 -138z"/>
</g>
</svg>
